<?xml version="1.0" encoding="utf-8"?>
<!-- Generator: Adobe Illustrator 17.1.0, SVG Export Plug-In . SVG Version: 6.00 Build 0)  -->
<!DOCTYPE svg PUBLIC "-//W3C//DTD SVG 1.1//EN" "http://www.w3.org/Graphics/SVG/1.1/DTD/svg11.dtd">
<svg version="1.1" id="Layer_1" xmlns="http://www.w3.org/2000/svg" xmlns:xlink="http://www.w3.org/1999/xlink" x="0px" y="0px"
	 viewBox="0 0 300 100.171" enable-background="new 0 0 300 100.171" xml:space="preserve">
<g>
	<g>
		<g>
			<g>
				<path fill="#FFFFFF" d="M99.139,50.082c0,26.633-21.778,48.226-48.64,48.226c-26.861,0-48.636-21.593-48.636-48.226
					c0-26.633,21.775-48.22,48.636-48.22C77.361,1.862,99.139,23.449,99.139,50.082z"/>
			</g>
			<g>
				<path fill="#55C2EA" d="M50.499,100.171C22.653,100.171,0,77.701,0,50.082C0,22.466,22.653,0,50.499,0
					c27.848,0,50.503,22.466,50.503,50.082C101.001,77.701,78.346,100.171,50.499,100.171z M50.499,3.725
					c-25.791,0-46.774,20.797-46.774,46.358c0,25.565,20.983,46.364,46.774,46.364c25.792,0,46.778-20.799,46.778-46.364
					C97.277,24.521,76.291,3.725,50.499,3.725z"/>
			</g>
		</g>
		<g>
			<g>
				<g>
					<path fill="#304856" d="M75.026,56.329c0.386-3.538,1.231-4.748,2.665-5.041l0.116-1.625c0,0-5.437-1.219-12.328-1.219
						c-6.895,0-11.046,2.425-13.889,2.425c-2.841,0-6.995-2.425-13.887-2.425c-2.076,0-3.343,0.094-4.984,0.224
						c-0.252,0.739-0.516,1.556-0.79,2.465c1.166-0.668,2.39-1.097,5.341-1.097c12.013,0,10.14,4.61,9.696,6.381
						c-0.443,1.783-1.779,6.767-9.834,6.767c-4.667,0-6.282-2.884-6.828-6.115c-0.02-0.128-0.036-0.26-0.059-0.392
						c-0.329,0.987-0.656,1.905-0.997,2.774c0.851,2.782,3.002,5.394,8.073,5.408c9.208,0.026,11.064-5.748,12.051-8.357
						c0.944-2.486,0.638-2.945,2.218-2.969c1.58,0.024,1.32,0.439,2.258,2.931c0.989,2.606,2.803,8.396,12.015,8.396
						C73.616,64.861,74.689,59.453,75.026,56.329z M66.027,63.186c-8.055,0-9.354-4.984-9.793-6.775
						c-0.439-1.775-2.813-6.373,9.198-6.373c9.186,0,8.359,4.163,7.996,6.755C72.975,60.04,70.7,63.186,66.027,63.186z"/>
				</g>
				<g>
					<path fill="#304856" d="M27.939,62.845c-2.006,3.916-3.052,4.622-4.85,5.715c0.024,1.661-1.026,3.207-2.951,3.428
						c-1.471,0.174-2.527-0.886-3.262-1.41c-0.179-0.13-0.449-0.077-0.54-0.002c-0.067,0.063-0.197,0.25-0.065,0.546
						c0.27,0.585,0.78,1.211,1.058,1.531c0.664,0.756,1.166,1.215,1.972,1.807c1.253,0.926,2.866,1.377,4.336,1.304
						c1.978-0.094,3.97-1.028,5.173-2.721c0.711-0.999,1.389-2.466,1.269-4.163C29.958,67.193,29.529,65.686,27.939,62.845z"/>
				</g>
				<g>
					<g>
						<path fill="#304856" d="M55.978,29.601c-1.326-2.411-4.497-4.911-9.568-5.384c-1.074-0.098-3.786,0.036-5.737,0.475
							c-3.715,0.837-7.167,2.49-9.645,4.781c-5.031,4.643-7.545,10.309-8.095,16.828c-0.41,4.96,0.236,10.719-2.64,15.025
							c-1.048,1.57-2.275,2.9-6.379,2.746c-0.36-0.018-0.597-0.032-0.735,0.118c-0.085,0.089-0.067,0.372,0.16,0.672
							c2.734,3.587,11.099,8.512,16.207-10.847c1.676-6.347,2.045-6.974,3.834-8.985c1.994-2.232,7.114-3.345,9.09-3.702
							c2.395-0.433,6.802-0.664,9.913-2.047c2.754-1.227,3.859-3.284,4.117-4.078C57.16,33.161,56.784,31.067,55.978,29.601z"/>
					</g>
					<g>
						<path fill="#304856" d="M85.672,68.978c-0.102-0.02-0.258,0.045-0.402,0.217c-1.556,1.797-3.282,1.659-4.096,1.586
							c-1.17-0.098-3.164-1.515-3.379-3.327c-0.512-4.322,1.442-7.878,3.213-12.23c0.652-1.604,1.245-3.82,1.69-6.032
							c1.779-8.887-3.099-18.284-6.363-22.565C67.351,14.834,51.388,14.099,46.76,13.944c-0.089,0-0.215,0.008-0.282,0.02
							c-1.141,0.156,0.948,0.942,2.094,1.913c0.447,0.374,1.068,0.82,1.495,1.613c0.427,0.792,0.526,1.659-0.244,1.233
							c-1.828-1.012-3.493-1.412-4.925-1.59c-3.349-0.412-5.004-0.114-6.763,0.161c-2.34,0.367-3.993,0.9-6.584,2.283
							c-3.615,1.931-5.794,3.751-7.982,6.562c-3.248,4.184-5.796,10.215-5.291,17.277c0.351,4.88,1.411,8.095,2.849,13.552
							c0.447-4.614,0.291-5.173,0.335-7.453c0.032-1.458,0.061-2.839,0.165-4.115c0.634-7.6,3.398-12.535,6.942-16.306
							c4.049-4.304,9.616-6.485,15.577-6.643c1.21-0.035,3.593,0.025,5.004,0.437c3.509,1.034,9.978,4.072,9.174,11.525
							c-0.14,1.304,0.162,1.97,1.125,2.644c3.53,2.47,11.797,2.11,14.206,9.813c0,0.008,0.002,0.008,0.004,0.014
							c0.039,0.108,0.073,0.213,0.11,0.327c0.083,0.256,0.067,0.203,0.136,0.445c2.433,0.319,4.498,0.843,4.616,0.871l0.819,0.183
							l-0.057,1.024l-0.116,1.621l-0.047,0.776l-0.741,0.167c-0.512,0.098-1.511,0.63-1.873,4.135
							c-0.183,1.746-0.506,4.106-1.824,6.064c-0.418,0.621-1.152,1.568-2.23,2.066c-1.503,8.004,4.208,10.624,7.912,10.096
							c3.284-0.471,5.26-2.75,5.538-5.358C85.922,69.092,85.804,69.004,85.672,68.978z"/>
					</g>
				</g>
				<g>
					<path fill="#304856" d="M44.02,56.435c0.485,0.654,1.363-0.235,0.869-0.881c-3.264-4.257-8.94-2.79-12.488-0.345
						c-0.981,0.674-0.457,1.832,0.607,1.399l0.262-0.128c0.983-0.56,2.069-1.239,3.209-1.763c-0.199,0.361-0.311,0.784-0.311,1.223
						c0,1.45,1.224,2.624,2.73,2.624c1.509,0,2.731-1.174,2.731-2.624c0-0.747-0.323-1.422-0.841-1.897
						C41.898,54.315,42.99,55.034,44.02,56.435z M38.786,56.535c-0.357,0-0.648-0.291-0.648-0.644s0.291-0.642,0.648-0.642
						c0.365,0,0.656,0.288,0.656,0.642S39.152,56.535,38.786,56.535z"/>
				</g>
				<g>
					<path fill="#304856" d="M70.741,55.225c-3.564-2.449-9.253-3.869-12.517,0.392c-0.496,0.644,0.475,1.468,0.946,0.802
						c1.028-1.446,2.132-2.157,3.258-2.404c-0.579,0.479-0.946,1.19-0.946,1.984c0,1.454,1.223,2.63,2.73,2.63
						c1.511,0,2.732-1.176,2.732-2.63c0-0.453-0.118-0.875-0.327-1.249c1.145,0.536,2.24,1.227,3.229,1.791l0.256,0.13
						C71.163,57.101,71.726,55.903,70.741,55.225z M64.364,56.575c-0.366,0-0.654-0.298-0.654-0.658
						c0-0.367,0.288-0.662,0.654-0.662c0.355,0,0.648,0.294,0.648,0.662C65.011,56.277,64.719,56.575,64.364,56.575z"/>
				</g>
				<g>
					<path fill="#304856" d="M56.427,72.914c0.603-0.613-0.136-1.316-0.776-0.823c-2.969,2.315-4.482,2.232-7.795,0.331
						c-0.76-0.43-1.347,0.418-0.648,0.896C50.425,75.901,53.451,75.924,56.427,72.914z"/>
				</g>
			</g>
			<g>
				<path fill="#304856" d="M57.528,81.878c-1.55,0.646-3.755,1.686-5.77,1.704c-2.015-0.018-4.224-1.058-5.772-1.706
					c-0.587-0.246-0.699,0.335-0.406,0.559c1.263,0.881,4.086,3.136,6.164,3.136c2.066,0,4.955-2.246,6.188-3.136
					C58.293,82.167,58.114,81.631,57.528,81.878z"/>
			</g>
			<g>
				<path fill="#304856" d="M60.107,79.22c-0.693,0.262-1.08,0.305-1.781,0.303c-2.037-0.02-2.585-0.229-4.375-0.674
					c-0.603-0.146-1.604,0.727-2.175,0.731c-0.571-0.004-1.582-0.877-2.185-0.731c-1.789,0.445-2.338,0.654-4.377,0.674
					c-0.697,0.002-1.085-0.041-1.777-0.303c-0.451-0.169-0.709,0.238-0.427,0.477c0.52,0.449,1.621,0.942,2.38,1.148
					c1.007,0.276,3.641,0.936,6.336,0.936c2.677-0.002,5.421-0.66,6.422-0.936c0.764-0.205,1.862-0.699,2.386-1.148
					C60.813,79.458,60.556,79.051,60.107,79.22z"/>
			</g>
		</g>
	</g>
	<g>
		<g>
			<g>
				<path fill-rule="evenodd" clip-rule="evenodd" fill="#FFFFFF" d="M116.672,55.369c-0.236,4.578,0.989,8.652,3.361,11.188
					c2.362,2.533,5.392,4.003,8.532,4.145c0.29,0.014,0.621,0.03,0.987,0.026c4.247,0,7.979-1.371,11.093-4.062
					c1.982-1.716,3.428-3.682,3.863-5.258c0.126-0.459,0.059-0.766-0.035-0.887c-0.039-0.049-0.077-0.071-0.136-0.071
					c-0.065,0-0.244,0.026-0.532,0.297c-0.418,0.39-1.905,1.554-2.713,2.141c-1.576,1.145-4.671,2.433-6.921,2.595
					c-4.407,0.307-6.787-1.58-7.971-5.475c-0.162-0.538-0.439-1.667-0.449-1.718c-0.025-0.085-0.008-0.177,0.038-0.258
					c0.051-0.075,0.128-0.132,0.215-0.146c0.077-0.02,8.219-1.653,11.351-2.772l0.225-0.077c1.716-0.601,6.948-2.421,7.281-7.421
					c0.179-2.622-1.702-5.745-4.464-7.429c-2.128-1.292-4.407-1.946-6.775-1.946c-1.188,0-2.417,0.164-3.656,0.493
					C122.324,40.756,117.106,47.288,116.672,55.369z M125.648,52.28c0.548-4.823,2.821-7.868,6.02-8.552
					c0.365-0.081,3.42-0.623,4.764,1.322c0.766,1.107,0.796,2.965,0.065,4.426c-1.158,2.323-3.82,3.189-6.227,3.816
					c-0.701,0.183-2.281,0.577-3.042,0.691c-0.609,0.093-1.296,0.166-1.296,0.166c-0.008,0,0.195,0,0.183,0
					c-0.085,0-0.382-0.03-0.443-0.089c-0.069-0.063-0.11-0.155-0.11-0.252C125.563,53.774,125.573,52.938,125.648,52.28z"/>
			</g>
			<g>
				<path fill-rule="evenodd" clip-rule="evenodd" fill="#FFFFFF" d="M194.427,67.733c0.098-0.317,0.447-1.877,0.504-2.179
					c0.313-1.671,0.955-4.884,1.279-6.361c0.148-0.676,1.141-6.101,1.399-7.52l0.02-0.104c0.433-2.388,1.158-6.383,0.567-8.522
					c-0.173-0.642-0.843-1.909-1.409-2.348c-1.15-0.896-2.303-1.348-3.989-1.566c-0.368-0.038-0.762-0.067-1.17-0.067
					c-3.518,0-7.746,1.647-10.106,3.276c-0.648,0.445-1.005,0.609-1.324,0.609c-0.463,0-0.715-0.341-1.04-0.772
					c-0.384-0.53-0.973-1.32-2.315-2.23c-0.804-0.546-2.177-0.843-3.863-0.843c-2.025,0-4.257,0.433-5.967,1.166
					c-0.853,0.365-1.734,0.806-2.51,1.2c-1.332,0.668-2.38,1.198-2.979,1.198c-0.388,0-0.546-0.211-0.607-0.339
					c-1.511-3.119-5.091-3.587-7.088-3.587c-0.219,0-0.433,0.006-0.646,0.016c-1.82,0.085-3.134,0.644-4.695,1.998
					c-0.528,0.455-0.752,0.981-0.624,1.168c0.026,0.041,0.116,0.168,0.469,0.168c0.126,0,0.276-0.02,0.435-0.051
					c0.952-0.185,2.21,0.223,2.748,0.894c1.948,2.404,0.323,9.966-0.29,12.811c0,0-0.5,2.397-0.741,3.568
					c-0.599,2.872-1.29,6.227-1.651,8.166c-0.089,0.467,0.008,0.993,0.229,1.269c0.599,0.747,1.401,0.707,3.134,0.711
					c0,0,1.535,0,1.933,0c1.613,0,2.543-0.573,2.72-1.397c0.323-1.487,0.581-2.689,0.79-3.749c0.193-0.975,0.699-3.266,0.699-3.266
					c1.072-4.484,1.694-7.167,2.474-9.775c0.8-2.695,2.323-4.86,4.927-6.085c0.723-0.345,1.942-0.575,3.032-0.575
					c0.766,0,1.44,0.112,1.946,0.325c1.59,0.658,1.162,3.105,0.879,4.72l-0.02,0.122c-0.56,3.217-1.247,6.422-1.615,8.146
					l-0.108,0.514c-0.307,1.442-1.304,6.442-1.734,9.158c-0.118,0.743-0.085,1.158,0.106,1.383c0.27,0.315,0.887,0.483,2.319,0.483
					c0.825,0,2.191,0,2.579-0.004c1.21-0.016,1.608-0.364,1.893-1.844c0.341-1.743,1.852-8.567,2.632-11.964l0.274-1.196
					c0.01-0.053,1.261-5.475,2.662-7.043c1.223-1.361,3.13-2.358,5.106-2.671c0.345-0.057,0.723-0.091,1.093-0.091
					c0.455,0,1.125,0.053,1.714,0.29c1.596,0.648,1.442,3.193,1.247,4.293c-0.459,2.555-0.997,5.349-1.515,8.048
					c-0.575,3.008-1.389,7.106-1.876,9.992c-0.366,2.185,1.68,2.242,3.972,2.238C191.651,69.512,193.822,69.689,194.427,67.733z"/>
			</g>
			<g>
				<path fill-rule="evenodd" clip-rule="evenodd" fill="#FFFFFF" d="M248.092,67.733c0.098-0.317,0.447-1.877,0.504-2.179
					c0.309-1.671,0.955-4.884,1.279-6.361c0.15-0.676,1.141-6.101,1.397-7.52l0.022-0.104c0.431-2.388,1.16-6.383,0.571-8.522
					c-0.179-0.642-0.847-1.909-1.414-2.348c-1.145-0.896-2.303-1.348-3.989-1.566c-0.37-0.038-0.764-0.067-1.17-0.067
					c-3.516,0-7.748,1.647-10.106,3.276c-0.648,0.445-1.007,0.609-1.324,0.609c-0.461,0-0.715-0.341-1.034-0.772
					c-0.392-0.53-0.979-1.32-2.325-2.23c-0.8-0.546-2.173-0.843-3.859-0.843c-2.027,0-4.257,0.433-5.967,1.166
					c-0.853,0.365-1.734,0.806-2.51,1.2c-1.332,0.668-2.38,1.198-2.977,1.198c-0.386,0-0.548-0.211-0.609-0.339
					c-1.511-3.119-5.09-3.587-7.09-3.587c-0.215,0-0.428,0.006-0.644,0.016c-1.82,0.085-3.134,0.644-4.696,1.998
					c-0.526,0.455-0.751,0.981-0.623,1.168c0.028,0.041,0.114,0.168,0.469,0.168c0.126,0,0.276-0.02,0.439-0.051
					c0.948-0.185,2.205,0.223,2.744,0.894c1.948,2.404,0.323,9.966-0.292,12.811c0,0-0.498,2.397-0.741,3.568
					c-0.597,2.872-1.285,6.227-1.649,8.166c-0.089,0.467,0.01,0.993,0.227,1.269c0.601,0.747,1.405,0.707,3.138,0.711
					c0,0,1.537,0,1.931,0c1.613,0,2.543-0.573,2.721-1.397c0.317-1.487,0.579-2.689,0.79-3.749c0.193-0.975,0.701-3.266,0.701-3.266
					c1.068-4.484,1.69-7.167,2.47-9.775c0.804-2.695,2.321-4.86,4.927-6.085c0.723-0.345,1.942-0.575,3.032-0.575
					c0.766,0,1.44,0.112,1.943,0.325c1.592,0.658,1.164,3.105,0.882,4.72l-0.022,0.122c-0.56,3.217-1.245,6.422-1.613,8.146
					l-0.108,0.514c-0.309,1.442-1.308,6.442-1.737,9.158c-0.118,0.743-0.085,1.158,0.108,1.383c0.268,0.315,0.887,0.483,2.315,0.483
					c0.829,0,2.197,0,2.585-0.004c1.208-0.016,1.607-0.364,1.893-1.844c0.339-1.743,1.85-8.567,2.63-11.964l0.276-1.196
					c0.01-0.053,1.261-5.475,2.661-7.043c1.223-1.361,3.128-2.358,5.108-2.671c0.343-0.057,0.721-0.091,1.088-0.091
					c0.459,0,1.127,0.053,1.716,0.29c1.596,0.648,1.442,3.193,1.245,4.293c-0.459,2.555-0.993,5.349-1.513,8.048
					c-0.577,3.008-1.391,7.106-1.876,9.992c-0.366,2.185,1.68,2.242,3.974,2.238C245.316,69.512,247.489,69.689,248.092,67.733z"/>
			</g>
			<g>
				<path fill-rule="evenodd" clip-rule="evenodd" fill="#FFFFFF" d="M283.381,69.683c1.02,0,2.035-0.161,2.941-0.461
					c2.937-0.967,5.481-4.147,5.353-4.945c-0.008-0.039-0.016-0.098-0.219-0.098c-0.073,0-0.158,0.01-0.244,0.028
					c-0.197,0.035-0.528,0.179-0.883,0.331c-0.741,0.319-1.667,0.721-2.585,0.739h-0.002c-1.31,0-2.551-0.845-3.148-2.1
					c-0.847-1.773-0.38-3.694,0.116-5.729l0.085-0.349c0.309-1.269,4.123-16.509,4.143-16.58c0.134-0.516,0.077-1.001-0.13-1.178
					c-0.341-0.292-1.076-0.049-1.785,0.217c-0.662,0.252-1.267,0.465-1.875,0.672c-0.577,0.203-1.145,0.404-1.734,0.623
					c-0.595,0.221-1.123,0.333-1.613,0.333c-1.089,0-1.6-0.512-2.352-1.082c-0.638-0.481-1.495-1.001-2.486-1.279
					c-1.411-0.388-2.833-0.585-4.228-0.585c-3.503,0-6.852,1.243-9.683,3.599c-5.569,4.635-9.277,14.442-8.258,21.851
					c0.626,4.531,3.757,6.838,9.578,7.066c2.983,0.118,5.116-0.881,7.161-1.846l0.262-0.122c0.66-0.309,1.395-0.792,2.102-1.257
					c1.085-0.711,1.939-1.275,2.543-1.275c0.278,0,0.504,0.122,0.634,0.343C278.235,68.529,280.591,69.683,283.381,69.683z
					 M277.418,49.601c-0.217,1.288-0.577,3.132-0.892,4.588c-0.319,1.466-0.636,2.731-0.973,4.074
					c-0.219,0.877-0.443,1.769-0.668,2.721c-0.579,2.474-4.029,4.135-6.887,4.135l0,0c-1.351,0-2.455-0.372-3.119-1.052
					c-2.327-2.38-2.108-6.85,0.636-12.925c0.932-2.057,2.857-4.738,4.393-6.109c1.015-0.906,2.474-1.452,3.899-1.452
					c1.94,0,3.371,0.95,3.745,2.476C277.739,46.825,277.695,47.954,277.418,49.601z"/>
			</g>
		</g>
		<g>
			<g>
				<g>
					<path fill="#FFFFFF" d="M297.476,43.864c-1.397,0-2.514-1.127-2.514-2.52c0-1.393,1.117-2.518,2.514-2.518
						c1.397,0,2.524,1.125,2.524,2.518C300,42.736,298.873,43.864,297.476,43.864L297.476,43.864z M297.476,39.243
						c-1.16,0-2.096,0.94-2.096,2.1c0,1.162,0.936,2.104,2.096,2.104c1.162,0,2.108-0.942,2.108-2.104
						C299.584,40.184,298.637,39.243,297.476,39.243L297.476,39.243z"/>
				</g>
			</g>
			<g>
				<path fill="#FFFFFF" d="M297.91,41.601c0.353-0.085,0.658-0.361,0.658-0.859c0-0.526-0.382-0.893-0.928-0.893h-1.111v2.898
					h0.455v-1.103h0.414l0.749,1.103h0.554L297.91,41.601z M296.984,40.285h0.636c0.291,0,0.477,0.179,0.477,0.457
					c0,0.278-0.191,0.461-0.477,0.461h-0.636V40.285z"/>
			</g>
		</g>
	</g>
</g>
</svg>
