<?xml version="1.0" encoding="utf-8"?>
<!-- Generator: Adobe Illustrator 17.1.0, SVG Export Plug-In . SVG Version: 6.00 Build 0)  -->
<!DOCTYPE svg PUBLIC "-//W3C//DTD SVG 1.1//EN" "http://www.w3.org/Graphics/SVG/1.1/DTD/svg11.dtd">
<svg version="1.1" id="Layer_1" xmlns="http://www.w3.org/2000/svg" xmlns:xlink="http://www.w3.org/1999/xlink" x="0px" y="0px"
	 viewBox="0 0 1000 500" enable-background="new 0 0 1000 500" xml:space="preserve">
<g>
	<g>
		<g>
			<g>
				<path fill="#FFFFFF" d="M330.5,250c0,88.8-72.6,160.8-162.1,160.8c-89.5,0-162.1-72-162.1-160.8S78.8,89.3,168.3,89.3
					C257.9,89.3,330.5,161.2,330.5,250z"/>
			</g>
			<g>
				<path fill="#55C2EA" d="M168.3,417C75.5,417,0,342.1,0,250C0,157.9,75.5,83,168.3,83c92.8,0,168.3,74.9,168.3,166.9
					C336.7,342.1,261.2,417,168.3,417z M168.3,95.5c-86,0-155.9,69.3-155.9,154.5c0,85.2,69.9,154.5,155.9,154.5
					c86,0,155.9-69.3,155.9-154.5C324.3,164.8,254.3,95.5,168.3,95.5z"/>
			</g>
		</g>
		<g>
			<g>
				<g>
					<path fill="#304856" d="M250.1,270.8c1.3-11.8,4.1-15.8,8.9-16.8l0.4-5.4c0,0-18.1-4.1-41.1-4.1c-23,0-36.8,8.1-46.3,8.1
						c-9.5,0-23.3-8.1-46.3-8.1c-6.9,0-11.1,0.3-16.6,0.7c-0.8,2.5-1.7,5.2-2.6,8.2c3.9-2.2,8-3.7,17.8-3.7
						c40,0,33.8,15.4,32.3,21.3c-1.5,5.9-5.9,22.6-32.8,22.6c-15.6,0-20.9-9.6-22.8-20.4c-0.1-0.4-0.1-0.9-0.2-1.3
						c-1.1,3.3-2.2,6.4-3.3,9.2c2.8,9.3,10,18,26.9,18c30.7,0.1,36.9-19.2,40.2-27.9c3.1-8.3,2.1-9.8,7.4-9.9
						c5.3,0.1,4.4,1.5,7.5,9.8c3.3,8.7,9.3,28,40.1,28C245.4,299.3,249,281.2,250.1,270.8z M220.1,293.7
						c-26.9,0-31.2-16.6-32.6-22.6c-1.5-5.9-9.4-21.2,30.7-21.2c30.6,0,27.9,13.9,26.7,22.5C243.2,283.2,235.7,293.7,220.1,293.7z"
						/>
				</g>
				<g>
					<path fill="#304856" d="M93.1,292.5c-6.7,13.1-10.2,15.4-16.2,19c0.1,5.5-3.4,10.7-9.8,11.4c-4.9,0.6-8.4-3-10.9-4.7
						c-0.6-0.4-1.5-0.3-1.8,0c-0.2,0.2-0.7,0.8-0.2,1.8c0.9,2,2.6,4,3.5,5.1c2.2,2.5,3.9,4,6.6,6c4.2,3.1,9.6,4.6,14.5,4.3
						c6.6-0.3,13.2-3.4,17.2-9.1c2.4-3.3,4.6-8.2,4.2-13.9C99.9,307,98.4,302,93.1,292.5z"/>
				</g>
				<g>
					<g>
						<path fill="#304856" d="M186.6,181.7c-4.4-8-15-16.4-31.9-17.9c-3.6-0.3-12.6,0.1-19.1,1.6c-12.4,2.8-23.9,8.3-32.1,15.9
							c-16.8,15.5-25.2,34.4-27,56.1c-1.4,16.5,0.8,35.7-8.8,50.1c-3.5,5.2-7.6,9.7-21.3,9.2c-1.2-0.1-2-0.1-2.4,0.4
							c-0.3,0.3-0.2,1.2,0.5,2.2c9.1,12,37,28.4,54-36.2c5.6-21.2,6.8-23.2,12.8-29.9c6.6-7.4,23.7-11.1,30.3-12.3
							c8-1.4,22.7-2.2,33-6.8c9.2-4.1,12.9-10.9,13.7-13.6C190.5,193.6,189.3,186.6,186.6,181.7z"/>
					</g>
					<g>
						<path fill="#304856" d="M285.6,313c-0.3-0.1-0.9,0.1-1.3,0.7c-5.2,6-10.9,5.5-13.7,5.3c-3.9-0.3-10.5-5-11.3-11.1
							c-1.7-14.4,4.8-26.3,10.7-40.8c2.2-5.3,4.2-12.7,5.6-20.1c5.9-29.6-10.3-60.9-21.2-75.2c-29.9-39.3-83.2-41.8-98.6-42.3
							c-0.3,0-0.7,0-0.9,0.1c-3.8,0.5,3.2,3.1,7,6.4c1.5,1.2,3.6,2.7,5,5.4c1.4,2.6,1.8,5.5-0.8,4.1c-6.1-3.4-11.6-4.7-16.4-5.3
							c-11.2-1.4-16.7-0.4-22.5,0.5c-7.8,1.2-13.3,3-21.9,7.6c-12,6.4-19.3,12.5-26.6,21.9c-10.8,13.9-19.3,34-17.6,57.6
							c1.2,16.3,4.7,27,9.5,45.2c1.5-15.4,1-17.2,1.1-24.8c0.1-4.9,0.2-9.5,0.6-13.7c2.1-25.3,11.3-41.8,23.1-54.4
							c13.5-14.3,32.1-21.6,51.9-22.1c4-0.1,12,0.1,16.7,1.5c11.7,3.4,33.3,13.6,30.6,38.4c-0.5,4.3,0.5,6.6,3.8,8.8
							c11.8,8.2,39.3,7,47.4,32.7c0,0,0,0,0,0c0.1,0.4,0.2,0.7,0.4,1.1c0.3,0.9,0.2,0.7,0.5,1.5c8.1,1.1,15,2.8,15.4,2.9l2.7,0.6
							l-0.2,3.4l-0.4,5.4l-0.2,2.6l-2.5,0.6c-1.7,0.3-5,2.1-6.2,13.8c-0.6,5.8-1.7,13.7-6.1,20.2c-1.4,2.1-3.8,5.2-7.4,6.9
							c-5,26.7,14,35.4,26.4,33.7c10.9-1.6,17.5-9.2,18.5-17.9C286.4,313.4,286,313.1,285.6,313z"/>
					</g>
				</g>
				<g>
					<path fill="#304856" d="M146.7,271.2c1.6,2.2,4.5-0.8,2.9-2.9c-10.9-14.2-29.8-9.3-41.6-1.1c-3.3,2.2-1.5,6.1,2,4.7l0.9-0.4
						c3.3-1.9,6.9-4.1,10.7-5.9c-0.7,1.2-1,2.6-1,4.1c0,4.8,4.1,8.7,9.1,8.7c5,0,9.1-3.9,9.1-8.7c0-2.5-1.1-4.7-2.8-6.3
						C139.7,264.1,143.3,266.5,146.7,271.2z M129.3,271.5c-1.2,0-2.2-1-2.2-2.1s1-2.1,2.2-2.1c1.2,0,2.2,1,2.2,2.1
						C131.5,270.5,130.5,271.5,129.3,271.5z"/>
				</g>
				<g>
					<path fill="#304856" d="M235.8,267.1c-11.9-8.2-30.8-12.9-41.7,1.3c-1.7,2.1,1.6,4.9,3.2,2.7c3.4-4.8,7.1-7.2,10.9-8
						c-1.9,1.6-3.2,4-3.2,6.6c0,4.8,4.1,8.8,9.1,8.8c5,0,9.1-3.9,9.1-8.8c0-1.5-0.4-2.9-1.1-4.2c3.8,1.8,7.5,4.1,10.8,6l0.9,0.4
						C237.2,273.4,239.1,269.4,235.8,267.1z M214.5,271.6c-1.2,0-2.2-1-2.2-2.2c0-1.2,1-2.2,2.2-2.2c1.2,0,2.2,1,2.2,2.2
						C216.7,270.6,215.7,271.6,214.5,271.6z"/>
				</g>
				<g>
					<path fill="#304856" d="M188.1,326.1c2-2-0.5-4.4-2.6-2.7c-9.9,7.7-14.9,7.4-26,1.1c-2.5-1.4-4.5,1.4-2.2,3
						C168.1,336.1,178.2,336.1,188.1,326.1z"/>
				</g>
			</g>
			<g>
				<path fill="#304856" d="M191.8,356c-5.2,2.2-12.5,5.6-19.2,5.7c-6.7-0.1-14.1-3.5-19.2-5.7c-2-0.8-2.3,1.1-1.4,1.9
					c4.2,2.9,13.6,10.5,20.5,10.5c6.9,0,16.5-7.5,20.6-10.5C194.3,356.9,193.7,355.2,191.8,356z"/>
			</g>
			<g>
				<path fill="#304856" d="M200.4,347.1c-2.3,0.9-3.6,1-5.9,1c-6.8-0.1-8.6-0.8-14.6-2.2c-2-0.5-5.3,2.4-7.2,2.4
					c-1.9,0-5.3-2.9-7.3-2.4c-6,1.5-7.8,2.2-14.6,2.2c-2.3,0-3.6-0.1-5.9-1c-1.5-0.6-2.4,0.8-1.4,1.6c1.7,1.5,5.4,3.1,7.9,3.8
					c3.4,0.9,12.1,3.1,21.1,3.1c8.9,0,18.1-2.2,21.4-3.1c2.5-0.7,6.2-2.3,8-3.8C202.7,347.9,201.9,346.6,200.4,347.1z"/>
			</g>
		</g>
	</g>
	<g>
		<g>
			<g>
				<path fill="#304856" d="M388.9,267.6c-0.8,15.3,3.3,28.8,11.2,37.3c7.9,8.4,18,13.3,28.4,13.8c1,0,2.1,0.1,3.3,0.1
					c14.2,0,26.6-4.6,37-13.5c6.6-5.7,11.4-12.3,12.9-17.5c0.4-1.5,0.2-2.6-0.1-3c-0.1-0.2-0.3-0.2-0.5-0.2c-0.2,0-0.8,0.1-1.8,1
					c-1.4,1.3-6.3,5.2-9,7.1c-5.3,3.8-15.6,8.1-23.1,8.6c-14.7,1-22.6-5.3-26.6-18.2c-0.5-1.8-1.5-5.6-1.5-5.7
					c-0.1-0.3,0-0.6,0.1-0.9c0.2-0.2,0.4-0.4,0.7-0.5c0.3-0.1,27.4-5.5,37.8-9.2l0.8-0.3c5.7-2,23.2-8.1,24.3-24.7
					c0.6-8.7-5.7-19.1-14.9-24.8c-7.1-4.3-14.7-6.5-22.6-6.5c-4,0-8.1,0.5-12.2,1.6C407.7,218.9,390.4,240.7,388.9,267.6z
					 M418.8,257.3c1.8-16.1,9.4-26.2,20.1-28.5c1.2-0.3,11.4-2.1,15.9,4.4c2.6,3.7,2.7,9.9,0.2,14.8c-3.9,7.7-12.7,10.6-20.8,12.7
					c-2.3,0.6-7.6,1.9-10.1,2.3c-2,0.3-4.3,0.6-4.3,0.6c0,0,0.6,0,0.6,0c-0.3,0-1.3-0.1-1.5-0.3c-0.2-0.2-0.4-0.5-0.4-0.8
					C418.5,262.3,418.6,259.5,418.8,257.3z"/>
			</g>
			<g>
				<path fill="#304856" d="M648.1,308.8c0.3-1.1,1.5-6.3,1.7-7.3c1-5.6,3.2-16.3,4.3-21.2c0.5-2.3,3.8-20.3,4.7-25.1l0.1-0.3
					c1.4-8,3.9-21.3,1.9-28.4c-0.6-2.1-2.8-6.4-4.7-7.8c-3.8-3-7.7-4.5-13.3-5.2c-1.2-0.1-2.5-0.2-3.9-0.2
					c-11.7,0-25.8,5.5-33.7,10.9c-2.2,1.5-3.3,2-4.4,2c-1.5,0-2.4-1.1-3.5-2.6c-1.3-1.8-3.2-4.4-7.7-7.4c-2.7-1.8-7.3-2.8-12.9-2.8
					c-6.8,0-14.2,1.4-19.9,3.9c-2.8,1.2-5.8,2.7-8.4,4c-4.4,2.2-7.9,4-9.9,4c-1.3,0-1.8-0.7-2-1.1c-5-10.4-17-12-23.6-12
					c-0.7,0-1.4,0-2.2,0.1c-6.1,0.3-10.4,2.1-15.7,6.7c-1.8,1.5-2.5,3.3-2.1,3.9c0.1,0.1,0.4,0.6,1.6,0.6c0.4,0,0.9-0.1,1.5-0.2
					c3.2-0.6,7.4,0.7,9.2,3c6.5,8,1.1,33.2-1,42.7c0,0-1.7,8-2.5,11.9c-2,9.6-4.3,20.8-5.5,27.2c-0.3,1.6,0,3.3,0.8,4.2
					c2,2.5,4.7,2.4,10.4,2.4c0,0,5.1,0,6.4,0c5.4,0,8.5-1.9,9.1-4.7c1.1-5,1.9-9,2.6-12.5c0.6-3.2,2.3-10.9,2.3-10.9
					c3.6-14.9,5.6-23.9,8.2-32.6c2.7-9,7.7-16.2,16.4-20.3c2.4-1.1,6.5-1.9,10.1-1.9c2.6,0,4.8,0.4,6.5,1.1
					c5.3,2.2,3.9,10.4,2.9,15.7l-0.1,0.4c-1.9,10.7-4.2,21.4-5.4,27.2l-0.4,1.7c-1,4.8-4.3,21.5-5.8,30.5c-0.4,2.5-0.3,3.9,0.4,4.6
					c0.9,1.1,3,1.6,7.7,1.6c2.8,0,7.3,0,8.6,0c4-0.1,5.4-1.2,6.3-6.1c1.1-5.8,6.2-28.6,8.8-39.9l0.9-4c0-0.2,4.2-18.2,8.9-23.5
					c4.1-4.5,10.4-7.9,17-8.9c1.2-0.2,2.4-0.3,3.6-0.3c1.5,0,3.8,0.2,5.7,1c5.3,2.2,4.8,10.6,4.2,14.3c-1.5,8.5-3.3,17.8-5,26.8
					c-1.9,10-4.6,23.7-6.3,33.3c-1.2,7.3,5.6,7.5,13.2,7.5C638.8,314.8,646.1,315.3,648.1,308.8z"/>
			</g>
			<g>
				<path fill="#304856" d="M827,308.8c0.3-1.1,1.5-6.3,1.7-7.3c1-5.6,3.2-16.3,4.3-21.2c0.5-2.3,3.8-20.3,4.7-25.1l0.1-0.3
					c1.4-8,3.9-21.3,1.9-28.4c-0.6-2.1-2.8-6.4-4.7-7.8c-3.8-3-7.7-4.5-13.3-5.2c-1.2-0.1-2.5-0.2-3.9-0.2
					c-11.7,0-25.8,5.5-33.7,10.9c-2.2,1.5-3.4,2-4.4,2c-1.5,0-2.4-1.1-3.4-2.6c-1.3-1.8-3.3-4.4-7.8-7.4c-2.7-1.8-7.2-2.8-12.9-2.8
					c-6.8,0-14.2,1.4-19.9,3.9c-2.8,1.2-5.8,2.7-8.4,4c-4.4,2.2-7.9,4-9.9,4c-1.3,0-1.8-0.7-2-1.1c-5-10.4-17-12-23.6-12
					c-0.7,0-1.4,0-2.1,0.1c-6.1,0.3-10.4,2.1-15.7,6.7c-1.8,1.5-2.5,3.3-2.1,3.9c0.1,0.1,0.4,0.6,1.6,0.6c0.4,0,0.9-0.1,1.5-0.2
					c3.2-0.6,7.3,0.7,9.1,3c6.5,8,1.1,33.2-1,42.7c0,0-1.7,8-2.5,11.9c-2,9.6-4.3,20.8-5.5,27.2c-0.3,1.6,0,3.3,0.8,4.2
					c2,2.5,4.7,2.4,10.5,2.4c0,0,5.1,0,6.4,0c5.4,0,8.5-1.9,9.1-4.7c1.1-5,1.9-9,2.6-12.5c0.6-3.2,2.3-10.9,2.3-10.9
					c3.6-14.9,5.6-23.9,8.2-32.6c2.7-9,7.7-16.2,16.4-20.3c2.4-1.1,6.5-1.9,10.1-1.9c2.6,0,4.8,0.4,6.5,1.1
					c5.3,2.2,3.9,10.4,2.9,15.7l-0.1,0.4c-1.9,10.7-4.1,21.4-5.4,27.2l-0.4,1.7c-1,4.8-4.4,21.5-5.8,30.5c-0.4,2.5-0.3,3.9,0.4,4.6
					c0.9,1.1,3,1.6,7.7,1.6c2.8,0,7.3,0,8.6,0c4-0.1,5.4-1.2,6.3-6.1c1.1-5.8,6.2-28.6,8.8-39.9l0.9-4c0-0.2,4.2-18.2,8.9-23.5
					c4.1-4.5,10.4-7.9,17-8.9c1.1-0.2,2.4-0.3,3.6-0.3c1.5,0,3.8,0.2,5.7,1c5.3,2.2,4.8,10.6,4.1,14.3c-1.5,8.5-3.3,17.8-5,26.8
					c-1.9,10-4.6,23.7-6.3,33.3c-1.2,7.3,5.6,7.5,13.2,7.5C817.7,314.8,825,315.3,827,308.8z"/>
			</g>
			<g>
				<path fill="#304856" d="M944.6,315.3c3.4,0,6.8-0.5,9.8-1.5c9.8-3.2,18.3-13.8,17.8-16.5c0-0.1-0.1-0.3-0.7-0.3
					c-0.2,0-0.5,0-0.8,0.1c-0.7,0.1-1.8,0.6-2.9,1.1c-2.5,1.1-5.6,2.4-8.6,2.5h0c-4.4,0-8.5-2.8-10.5-7c-2.8-5.9-1.3-12.3,0.4-19.1
					l0.3-1.2c1-4.2,13.7-55,13.8-55.3c0.4-1.7,0.3-3.3-0.4-3.9c-1.1-1-3.6-0.2-6,0.7c-2.2,0.8-4.2,1.6-6.2,2.2
					c-1.9,0.7-3.8,1.3-5.8,2.1c-2,0.7-3.7,1.1-5.4,1.1c-3.6,0-5.3-1.7-7.8-3.6c-2.1-1.6-5-3.3-8.3-4.3c-4.7-1.3-9.4-1.9-14.1-1.9
					c-11.7,0-22.8,4.1-32.3,12c-18.6,15.4-30.9,48.1-27.5,72.8c2.1,15.1,12.5,22.8,31.9,23.6c9.9,0.4,17.1-2.9,23.9-6.2l0.9-0.4
					c2.2-1,4.6-2.6,7-4.2c3.6-2.4,6.5-4.2,8.5-4.2c0.9,0,1.7,0.4,2.1,1.1C927.4,311.5,935.3,315.3,944.6,315.3z M924.7,248.4
					c-0.7,4.3-1.9,10.4-3,15.3c-1.1,4.9-2.1,9.1-3.2,13.6c-0.7,2.9-1.5,5.9-2.2,9.1c-1.9,8.2-13.4,13.8-23,13.8l0,0
					c-4.5,0-8.2-1.2-10.4-3.5c-7.8-7.9-7-22.8,2.1-43.1c3.1-6.9,9.5-15.8,14.6-20.4c3.4-3,8.2-4.8,13-4.8c6.5,0,11.2,3.2,12.5,8.3
					C925.8,239.1,925.7,242.9,924.7,248.4z"/>
			</g>
		</g>
		<g>
			<g>
				<g>
					<path fill="#304856" d="M991.6,229.3c-4.7,0-8.4-3.8-8.4-8.4s3.7-8.4,8.4-8.4s8.4,3.8,8.4,8.4
						C1000,225.5,996.2,229.3,991.6,229.3L991.6,229.3z M991.6,213.9c-3.9,0-7,3.1-7,7c0,3.9,3.1,7,7,7c3.9,0,7-3.1,7-7
						C998.6,217,995.5,213.9,991.6,213.9L991.6,213.9z"/>
				</g>
			</g>
			<g>
				<path fill="#304856" d="M993,221.7c1.2-0.3,2.2-1.2,2.2-2.9c0-1.8-1.3-3-3.1-3h-3.7v9.7h1.5v-3.7h1.4l2.5,3.7h1.8L993,221.7z
					 M989.9,217.3h2.1c1,0,1.6,0.6,1.6,1.5s-0.6,1.5-1.6,1.5h-2.1V217.3z"/>
			</g>
		</g>
	</g>
</g>
</svg>
